<svg width="64" height="64" viewBox="0 0 64 64" fill="none" xmlns="http://www.w3.org/2000/svg">
  <filter id="filter0_d" x="0" y="0" width="64" height="64" filterUnits="userSpaceOnUse" color-interpolation-filters="sRGB">
    <feFlood flood-opacity="0" result="BackgroundImageFix"/>
    <feColorMatrix in="SourceAlpha" type="matrix" values="0 0 0 0 0 0 0 0 0 0 0 0 0 0 0 0 0 0 127 0"/>
    <feOffset dy="4"/>
    <feGaussianBlur stdDeviation="4"/>
    <feColorMatrix type="matrix" values="0 0 0 0 0 0 0 0 0 0 0 0 0 0 0 0 0 0 0.25 0"/>
    <feBlend mode="normal" in2="BackgroundImageFix" result="effect1_dropShadow"/>
    <feBlend mode="normal" in="SourceGraphic" in2="effect1_dropShadow" result="shape"/>
  </filter>
  
  <g filter="url(#filter0_d)">
    <path d="M32 4C20.9543 4 12 12.9543 12 24C12 37.5 30 54 32 56C34 54 52 37.5 52 24C52 12.9543 43.0457 4 32 4Z" fill="#EF4444"/>
    <path d="M32 4C20.9543 4 12 12.9543 12 24C12 37.5 30 54 32 56C34 54 52 37.5 52 24C52 12.9543 43.0457 4 32 4Z" stroke="#B91C1C" stroke-width="1"/>
  </g>
  
  <circle cx="32" cy="24" r="8" fill="white"/>
</svg>